<?xml version="1.0" encoding="UTF-8"?>
<svg xmlns="http://www.w3.org/2000/svg" xmlns:xlink="http://www.w3.org/1999/xlink" width="500" zoomAndPan="magnify" viewBox="0 0 375 374.999991" height="500" preserveAspectRatio="xMidYMid meet" version="1.0" style="background: none;"><defs><clipPath id="47b39a05d4"><path d="M 109.300781 140.582031 L 266.050781 140.582031 L 266.050781 234.332031 L 109.300781 234.332031 Z M 109.300781 140.582031 " clip-rule="nonzero"/></clipPath><clipPath id="3a3f1bd438"><path d="M 140.046875 140.589844 L 235.296875 140.589844 L 235.296875 234.324219 L 140.046875 234.324219 Z M 140.046875 140.589844 " clip-rule="nonzero"/></clipPath></defs><g clip-path="url(#47b39a05d4)"><path fill="#000000" d="M 124.976562 140.582031 C 116.359375 140.582031 109.300781 147.613281 109.300781 156.207031 L 109.300781 218.707031 C 109.300781 227.296875 116.359375 234.332031 124.976562 234.332031 L 250.378906 234.332031 C 258.996094 234.332031 266.050781 227.296875 266.050781 218.707031 L 266.050781 156.207031 C 266.050781 147.613281 258.996094 140.582031 250.378906 140.582031 Z M 124.976562 146.832031 L 140.652344 146.832031 L 140.652344 228.082031 L 124.976562 228.082031 C 119.746094 228.082031 115.574219 223.921875 115.574219 218.707031 L 115.574219 156.207031 C 115.574219 150.992188 119.746094 146.832031 124.976562 146.832031 Z M 234.703125 146.832031 L 250.378906 146.832031 C 255.609375 146.832031 259.78125 150.992188 259.78125 156.207031 L 259.78125 218.707031 C 259.78125 223.921875 255.609375 228.082031 250.378906 228.082031 L 234.703125 228.082031 Z M 128.113281 156.207031 C 127.699219 156.207031 127.292969 156.246094 126.890625 156.328125 C 126.484375 156.40625 126.09375 156.523438 125.714844 156.683594 C 125.332031 156.839844 124.972656 157.03125 124.628906 157.261719 C 124.285156 157.488281 123.96875 157.746094 123.679688 158.035156 C 123.386719 158.328125 123.128906 158.644531 122.898438 158.984375 C 122.671875 159.324219 122.476562 159.683594 122.320312 160.066406 C 122.164062 160.445312 122.042969 160.835938 121.964844 161.238281 C 121.882812 161.640625 121.84375 162.046875 121.84375 162.457031 C 121.84375 162.867188 121.882812 163.273438 121.964844 163.675781 C 122.042969 164.078125 122.164062 164.46875 122.320312 164.847656 C 122.476562 165.226562 122.671875 165.585938 122.898438 165.929688 C 123.128906 166.269531 123.386719 166.585938 123.679688 166.875 C 123.96875 167.167969 124.285156 167.425781 124.628906 167.652344 C 124.972656 167.882812 125.332031 168.074219 125.714844 168.230469 C 126.09375 168.386719 126.484375 168.507812 126.890625 168.585938 C 127.292969 168.667969 127.699219 168.707031 128.113281 168.707031 C 128.523438 168.707031 128.933594 168.667969 129.335938 168.585938 C 129.738281 168.507812 130.132812 168.386719 130.511719 168.230469 C 130.890625 168.074219 131.253906 167.882812 131.597656 167.652344 C 131.9375 167.425781 132.253906 167.167969 132.546875 166.875 C 132.835938 166.585938 133.097656 166.269531 133.324219 165.929688 C 133.554688 165.585938 133.746094 165.226562 133.90625 164.847656 C 134.0625 164.46875 134.183594 164.078125 134.261719 163.675781 C 134.34375 163.273438 134.382812 162.867188 134.382812 162.457031 C 134.382812 162.046875 134.34375 161.640625 134.261719 161.238281 C 134.183594 160.835938 134.0625 160.445312 133.90625 160.066406 C 133.746094 159.683594 133.554688 159.324219 133.324219 158.984375 C 133.097656 158.644531 132.835938 158.328125 132.546875 158.035156 C 132.253906 157.746094 131.9375 157.488281 131.597656 157.261719 C 131.253906 157.03125 130.890625 156.839844 130.511719 156.683594 C 130.132812 156.523438 129.738281 156.40625 129.335938 156.328125 C 128.933594 156.246094 128.523438 156.207031 128.113281 156.207031 Z M 247.242188 156.207031 C 246.828125 156.207031 246.425781 156.285156 246.042969 156.445312 C 245.660156 156.601562 245.320312 156.828125 245.027344 157.121094 C 244.730469 157.414062 244.503906 157.753906 244.347656 158.136719 C 244.1875 158.519531 244.109375 158.917969 244.109375 159.332031 C 244.109375 159.746094 244.1875 160.144531 244.347656 160.527344 C 244.503906 160.910156 244.730469 161.25 245.027344 161.542969 C 245.320312 161.835938 245.660156 162.058594 246.042969 162.21875 C 246.425781 162.378906 246.828125 162.457031 247.242188 162.457031 C 247.65625 162.457031 248.058594 162.378906 248.441406 162.21875 C 248.828125 162.058594 249.164062 161.835938 249.460938 161.542969 C 249.753906 161.25 249.980469 160.910156 250.140625 160.527344 C 250.296875 160.144531 250.378906 159.746094 250.378906 159.332031 C 250.378906 158.917969 250.296875 158.519531 250.140625 158.136719 C 249.980469 157.753906 249.753906 157.414062 249.460938 157.121094 C 249.164062 156.828125 248.828125 156.601562 248.441406 156.445312 C 248.058594 156.285156 247.65625 156.207031 247.242188 156.207031 Z M 240.972656 162.457031 C 240.558594 162.457031 240.15625 162.535156 239.773438 162.695312 C 239.386719 162.851562 239.050781 163.078125 238.753906 163.371094 C 238.460938 163.664062 238.234375 164.003906 238.074219 164.386719 C 237.917969 164.769531 237.835938 165.167969 237.835938 165.582031 C 237.835938 165.996094 237.917969 166.394531 238.074219 166.777344 C 238.234375 167.160156 238.460938 167.5 238.753906 167.792969 C 239.050781 168.085938 239.386719 168.308594 239.773438 168.46875 C 240.15625 168.628906 240.558594 168.707031 240.972656 168.707031 C 241.386719 168.707031 241.789062 168.628906 242.171875 168.46875 C 242.554688 168.308594 242.894531 168.085938 243.1875 167.792969 C 243.484375 167.5 243.710938 167.160156 243.867188 166.777344 C 244.027344 166.394531 244.109375 165.996094 244.109375 165.582031 C 244.109375 165.167969 244.027344 164.769531 243.867188 164.386719 C 243.710938 164.003906 243.484375 163.664062 243.1875 163.371094 C 242.894531 163.078125 242.554688 162.851562 242.171875 162.695312 C 241.789062 162.535156 241.386719 162.457031 240.972656 162.457031 Z M 253.511719 162.457031 C 253.097656 162.457031 252.695312 162.535156 252.3125 162.695312 C 251.929688 162.851562 251.589844 163.078125 251.296875 163.371094 C 251 163.664062 250.773438 164.003906 250.617188 164.386719 C 250.457031 164.769531 250.378906 165.167969 250.378906 165.582031 C 250.378906 165.996094 250.457031 166.394531 250.617188 166.777344 C 250.773438 167.160156 251 167.5 251.296875 167.792969 C 251.589844 168.085938 251.929688 168.308594 252.3125 168.46875 C 252.695312 168.628906 253.097656 168.707031 253.511719 168.707031 C 253.929688 168.707031 254.328125 168.628906 254.710938 168.46875 C 255.097656 168.308594 255.433594 168.085938 255.730469 167.792969 C 256.023438 167.5 256.25 167.160156 256.410156 166.777344 C 256.566406 166.394531 256.648438 165.996094 256.648438 165.582031 C 256.648438 165.167969 256.566406 164.769531 256.410156 164.386719 C 256.25 164.003906 256.023438 163.664062 255.730469 163.371094 C 255.433594 163.078125 255.097656 162.851562 254.710938 162.695312 C 254.328125 162.535156 253.929688 162.457031 253.511719 162.457031 Z M 247.242188 168.707031 C 246.828125 168.707031 246.425781 168.785156 246.042969 168.945312 C 245.660156 169.101562 245.320312 169.328125 245.027344 169.621094 C 244.730469 169.914062 244.503906 170.253906 244.347656 170.636719 C 244.1875 171.019531 244.109375 171.417969 244.109375 171.832031 C 244.109375 172.246094 244.1875 172.644531 244.347656 173.027344 C 244.503906 173.410156 244.730469 173.75 245.027344 174.042969 C 245.320312 174.335938 245.660156 174.558594 246.042969 174.71875 C 246.425781 174.878906 246.828125 174.957031 247.242188 174.957031 C 247.65625 174.957031 248.058594 174.878906 248.441406 174.71875 C 248.828125 174.558594 249.164062 174.335938 249.460938 174.042969 C 249.753906 173.75 249.980469 173.410156 250.140625 173.027344 C 250.296875 172.644531 250.378906 172.246094 250.378906 171.832031 C 250.378906 171.417969 250.296875 171.019531 250.140625 170.636719 C 249.980469 170.253906 249.753906 169.914062 249.460938 169.621094 C 249.164062 169.328125 248.828125 169.101562 248.441406 168.945312 C 248.058594 168.785156 247.65625 168.707031 247.242188 168.707031 Z M 128.113281 178.082031 C 127.695312 178.082031 127.296875 178.160156 126.914062 178.320312 C 126.527344 178.476562 126.191406 178.703125 125.894531 178.996094 C 125.601562 179.289062 125.375 179.628906 125.214844 180.011719 C 125.058594 180.394531 124.976562 180.792969 124.976562 181.207031 C 124.976562 181.621094 125.058594 182.019531 125.214844 182.402344 C 125.375 182.785156 125.601562 183.125 125.894531 183.417969 C 126.191406 183.710938 126.527344 183.933594 126.914062 184.09375 C 127.296875 184.253906 127.695312 184.332031 128.113281 184.332031 C 128.527344 184.332031 128.929688 184.253906 129.3125 184.09375 C 129.695312 183.933594 130.035156 183.710938 130.328125 183.417969 C 130.625 183.125 130.851562 182.785156 131.007812 182.402344 C 131.167969 182.019531 131.246094 181.621094 131.246094 181.207031 C 131.246094 180.792969 131.167969 180.394531 131.007812 180.011719 C 130.851562 179.628906 130.625 179.289062 130.328125 178.996094 C 130.035156 178.703125 129.695312 178.476562 129.3125 178.320312 C 128.929688 178.160156 128.527344 178.082031 128.113281 178.082031 Z M 121.84375 184.332031 C 121.425781 184.332031 121.027344 184.410156 120.644531 184.570312 C 120.257812 184.726562 119.917969 184.953125 119.625 185.246094 C 119.332031 185.539062 119.105469 185.878906 118.945312 186.261719 C 118.785156 186.644531 118.707031 187.042969 118.707031 187.457031 C 118.707031 187.871094 118.785156 188.269531 118.945312 188.652344 C 119.105469 189.035156 119.332031 189.375 119.625 189.667969 C 119.917969 189.960938 120.257812 190.183594 120.644531 190.34375 C 121.027344 190.503906 121.425781 190.582031 121.84375 190.582031 C 122.257812 190.582031 122.65625 190.503906 123.042969 190.34375 C 123.425781 190.183594 123.765625 189.960938 124.058594 189.667969 C 124.351562 189.375 124.578125 189.035156 124.738281 188.652344 C 124.898438 188.269531 124.976562 187.871094 124.976562 187.457031 C 124.976562 187.042969 124.898438 186.644531 124.738281 186.261719 C 124.578125 185.878906 124.351562 185.539062 124.058594 185.246094 C 123.765625 184.953125 123.425781 184.726562 123.042969 184.570312 C 122.65625 184.410156 122.257812 184.332031 121.84375 184.332031 Z M 134.382812 184.332031 C 133.964844 184.332031 133.566406 184.410156 133.183594 184.570312 C 132.796875 184.726562 132.460938 184.953125 132.164062 185.246094 C 131.871094 185.539062 131.644531 185.878906 131.484375 186.261719 C 131.328125 186.644531 131.246094 187.042969 131.246094 187.457031 C 131.246094 187.871094 131.328125 188.269531 131.484375 188.652344 C 131.644531 189.035156 131.871094 189.375 132.164062 189.667969 C 132.460938 189.960938 132.796875 190.183594 133.183594 190.34375 C 133.566406 190.503906 133.964844 190.582031 134.382812 190.582031 C 134.796875 190.582031 135.199219 190.503906 135.582031 190.34375 C 135.964844 190.183594 136.304688 189.960938 136.597656 189.667969 C 136.894531 189.375 137.121094 189.035156 137.277344 188.652344 C 137.4375 188.269531 137.515625 187.871094 137.515625 187.457031 C 137.515625 187.042969 137.4375 186.644531 137.277344 186.261719 C 137.121094 185.878906 136.894531 185.539062 136.597656 185.246094 C 136.304688 184.953125 135.964844 184.726562 135.582031 184.570312 C 135.199219 184.410156 134.796875 184.332031 134.382812 184.332031 Z M 247.242188 184.332031 C 246.832031 184.332031 246.421875 184.371094 246.019531 184.453125 C 245.617188 184.53125 245.222656 184.648438 244.84375 184.808594 C 244.460938 184.964844 244.101562 185.15625 243.757812 185.386719 C 243.417969 185.613281 243.101562 185.871094 242.808594 186.160156 C 242.519531 186.453125 242.257812 186.769531 242.027344 187.109375 C 241.800781 187.449219 241.605469 187.808594 241.449219 188.191406 C 241.292969 188.570312 241.171875 188.960938 241.09375 189.363281 C 241.011719 189.765625 240.972656 190.171875 240.972656 190.582031 C 240.972656 190.992188 241.011719 191.398438 241.09375 191.800781 C 241.171875 192.203125 241.292969 192.59375 241.449219 192.972656 C 241.605469 193.351562 241.800781 193.710938 242.027344 194.054688 C 242.257812 194.394531 242.519531 194.710938 242.808594 195 C 243.101562 195.292969 243.417969 195.550781 243.757812 195.777344 C 244.101562 196.007812 244.460938 196.199219 244.84375 196.355469 C 245.222656 196.511719 245.617188 196.632812 246.019531 196.710938 C 246.421875 196.792969 246.832031 196.832031 247.242188 196.832031 C 247.652344 196.832031 248.0625 196.792969 248.464844 196.710938 C 248.871094 196.632812 249.261719 196.511719 249.640625 196.355469 C 250.023438 196.199219 250.382812 196.007812 250.726562 195.777344 C 251.066406 195.550781 251.386719 195.292969 251.675781 195 C 251.96875 194.710938 252.226562 194.394531 252.457031 194.054688 C 252.683594 193.710938 252.878906 193.351562 253.035156 192.972656 C 253.191406 192.59375 253.3125 192.203125 253.390625 191.800781 C 253.472656 191.398438 253.511719 190.992188 253.511719 190.582031 C 253.511719 190.171875 253.472656 189.765625 253.390625 189.363281 C 253.3125 188.960938 253.191406 188.570312 253.035156 188.191406 C 252.878906 187.808594 252.683594 187.449219 252.457031 187.109375 C 252.226562 186.769531 251.96875 186.453125 251.675781 186.160156 C 251.386719 185.871094 251.066406 185.613281 250.726562 185.386719 C 250.382812 185.15625 250.023438 184.964844 249.640625 184.808594 C 249.261719 184.648438 248.871094 184.53125 248.464844 184.453125 C 248.0625 184.371094 247.652344 184.332031 247.242188 184.332031 Z M 128.113281 190.582031 C 127.695312 190.582031 127.296875 190.660156 126.914062 190.820312 C 126.527344 190.976562 126.191406 191.203125 125.894531 191.496094 C 125.601562 191.789062 125.375 192.128906 125.214844 192.511719 C 125.058594 192.894531 124.976562 193.292969 124.976562 193.707031 C 124.976562 194.121094 125.058594 194.519531 125.214844 194.902344 C 125.375 195.285156 125.601562 195.625 125.894531 195.917969 C 126.191406 196.210938 126.527344 196.433594 126.914062 196.59375 C 127.296875 196.753906 127.695312 196.832031 128.113281 196.832031 C 128.527344 196.832031 128.929688 196.753906 129.3125 196.59375 C 129.695312 196.433594 130.035156 196.210938 130.328125 195.917969 C 130.625 195.625 130.851562 195.285156 131.007812 194.902344 C 131.167969 194.519531 131.246094 194.121094 131.246094 193.707031 C 131.246094 193.292969 131.167969 192.894531 131.007812 192.511719 C 130.851562 192.128906 130.625 191.789062 130.328125 191.496094 C 130.035156 191.203125 129.695312 190.976562 129.3125 190.820312 C 128.929688 190.660156 128.527344 190.582031 128.113281 190.582031 Z M 128.113281 190.582031 " fill-opacity="1" fill-rule="nonzero"/></g><g clip-path="url(#3a3f1bd438)"><path fill="#333333" d="M 221.269531 164.117188 L 208.222656 156.617188 L 208.222656 171.613281 Z M 221.433594 192.40625 L 208.222656 184.816406 L 208.222656 187.363281 L 221.433594 194.953125 Z M 208.222656 184.0625 L 221.433594 191.652344 L 221.433594 189.292969 L 208.222656 181.703125 Z M 221.433594 186.183594 L 208.222656 178.59375 L 208.222656 180.949219 L 221.433594 188.542969 Z M 221.433594 183.070312 L 208.222656 175.480469 L 208.222656 177.839844 L 221.433594 185.429688 Z M 221.433594 179.769531 C 217.027344 177.242188 212.625 174.710938 208.222656 172.179688 L 208.222656 174.726562 L 221.433594 182.316406 Z M 214.828125 144.480469 C 217.140625 145.804688 219.449219 147.132812 221.761719 148.464844 L 221.761719 156.617188 L 207.730469 148.554688 Z M 214.828125 152.257812 L 221.269531 148.554688 L 214.828125 144.855469 L 208.386719 148.554688 Z M 221.433594 148.839844 L 215.15625 152.445312 L 221.433594 156.054688 Z M 167.285156 170.625 L 154.074219 163.03125 L 154.074219 165.390625 L 167.285156 172.980469 Z M 167.285156 167.511719 L 154.074219 159.921875 L 154.074219 162.277344 L 167.285156 169.871094 Z M 167.285156 164.398438 L 154.074219 156.808594 L 154.074219 159.167969 L 167.285156 166.757812 Z M 169.664062 162.65625 L 156.453125 155.0625 L 154.402344 156.242188 L 167.613281 163.835938 Z M 172.371094 161.097656 L 159.160156 153.507812 L 157.109375 154.6875 L 170.320312 162.277344 Z M 180.660156 156.335938 L 167.449219 148.746094 L 165.234375 150.019531 L 178.441406 157.609375 Z M 167.613281 173.265625 L 172.945312 176.328125 L 175.160156 175.054688 L 167.613281 170.71875 Z M 169.746094 178.167969 L 167.613281 176.941406 L 167.613281 179.394531 Z M 167.613281 176.375 L 170.238281 177.886719 L 172.453125 176.613281 L 167.613281 173.828125 Z M 194.359375 176.660156 L 181.148438 169.066406 L 181.148438 171.800781 L 194.359375 179.394531 Z M 194.359375 173.546875 L 181.148438 165.957031 L 181.148438 168.691406 L 194.359375 176.28125 Z M 194.359375 170.433594 L 181.148438 162.84375 L 181.148438 165.578125 L 194.359375 173.171875 Z M 173.1875 176.5625 L 186.398438 184.15625 L 188.78125 182.789062 L 175.566406 175.195312 Z M 183.363281 185.902344 L 170.152344 178.308594 L 167.777344 179.675781 L 180.984375 187.269531 Z M 170.480469 178.121094 L 183.691406 185.710938 L 186.070312 184.34375 L 172.859375 176.75 Z M 167.285156 176.847656 L 154.074219 169.257812 L 154.074219 171.804688 L 167.285156 179.394531 Z M 154.074219 168.503906 L 167.285156 176.09375 L 167.285156 173.734375 L 154.074219 166.144531 Z M 175.078125 159.542969 L 161.871094 151.953125 L 159.816406 153.128906 L 173.027344 160.722656 Z M 162.523438 151.574219 L 175.734375 159.167969 L 177.785156 157.988281 L 164.578125 150.394531 Z M 177.867188 173.5 L 167.613281 167.605469 L 167.613281 170.152344 L 175.652344 174.773438 Z M 167.613281 167.042969 L 178.359375 173.21875 L 180.574219 171.945312 L 167.613281 164.492188 Z M 180.820312 162.75 L 175.488281 159.683594 L 173.273438 160.957031 L 180.820312 165.296875 Z M 178.6875 157.847656 L 180.820312 159.074219 L 180.820312 156.621094 Z M 180.820312 159.636719 L 178.195312 158.128906 L 175.980469 159.402344 L 180.820312 162.183594 Z M 170.566406 162.515625 L 180.820312 168.410156 L 180.820312 165.859375 L 172.78125 161.238281 Z M 180.820312 168.972656 L 170.074219 162.796875 L 167.859375 164.070312 L 180.820312 171.519531 Z M 191.488281 181.234375 L 178.273438 173.640625 L 175.894531 175.007812 L 189.105469 182.601562 Z M 178.601562 173.453125 L 191.8125 181.042969 L 194.195312 179.675781 L 180.984375 172.085938 Z M 194.359375 167.324219 L 181.148438 159.730469 L 181.148438 162.46875 L 194.359375 170.058594 Z M 181.148438 159.355469 L 194.359375 166.945312 L 194.359375 164.210938 L 181.148438 156.617188 Z M 181.3125 156.335938 L 194.523438 163.929688 L 207.730469 156.335938 L 194.523438 148.746094 Z M 147.308594 191.25 C 147.308594 193.90625 147.304688 196.5625 147.308594 199.21875 L 140.210938 203.296875 C 140.210938 197.921875 140.210938 192.546875 140.210938 187.175781 Z M 146.816406 199.125 L 140.539062 195.519531 L 140.539062 202.734375 Z M 140.539062 195.140625 L 146.980469 198.84375 L 146.980469 191.441406 L 140.539062 187.738281 Z M 147.308594 159.945312 L 147.308594 168.289062 L 140.046875 164.117188 Z M 146.980469 160.507812 L 140.703125 164.117188 L 146.980469 167.722656 Z M 180.984375 140.589844 C 183.351562 141.945312 185.714844 143.308594 188.082031 144.667969 C 185.714844 146.027344 183.347656 147.382812 180.984375 148.746094 C 178.621094 147.382812 176.253906 146.027344 173.890625 144.667969 Z M 180.984375 140.964844 L 174.542969 144.667969 L 180.984375 148.371094 L 187.425781 144.667969 Z M 180.820312 187.550781 L 167.613281 179.957031 L 167.613281 195.140625 L 180.820312 202.734375 Z M 194.359375 210.515625 L 194.359375 195.140625 L 207.730469 187.457031 L 194.523438 179.863281 C 190.0625 182.417969 185.609375 184.992188 181.148438 187.550781 L 181.148438 202.921875 Z M 194.6875 198.539062 L 194.6875 201.085938 L 207.894531 193.492188 L 207.894531 190.945312 Z M 207.894531 187.738281 L 194.6875 195.332031 L 194.6875 197.972656 L 207.894531 190.378906 Z M 194.6875 204.195312 L 207.894531 196.605469 L 207.894531 194.058594 L 194.6875 201.648438 Z M 194.6875 207.308594 L 207.894531 199.714844 L 207.894531 197.167969 L 194.6875 204.761719 Z M 207.894531 200.28125 L 194.6875 207.871094 L 194.6875 210.515625 L 207.894531 202.921875 Z M 165.066406 181.230469 L 165.070312 196.414062 L 167.285156 195.140625 L 167.285156 179.957031 Z M 162.359375 182.789062 L 162.359375 197.972656 L 164.414062 196.792969 L 164.414062 181.609375 Z M 159.652344 184.34375 L 159.652344 199.527344 L 161.707031 198.347656 L 161.707031 183.164062 Z M 156.945312 185.898438 L 156.945312 201.085938 L 159 199.902344 L 159 184.71875 Z M 154.074219 202.734375 L 156.292969 201.460938 L 156.292969 186.277344 L 154.074219 187.550781 Z M 169.746094 209.285156 L 156.539062 201.695312 L 154.238281 203.015625 L 167.449219 210.609375 Z M 157.027344 201.414062 L 170.238281 209.003906 L 172.453125 207.730469 L 159.246094 200.140625 Z M 165.152344 196.746094 L 178.359375 204.335938 L 180.65625 203.015625 L 167.449219 195.425781 Z M 175.160156 206.175781 L 161.953125 198.582031 L 159.734375 199.855469 L 172.945312 207.449219 Z M 162.441406 198.300781 L 175.652344 205.894531 L 177.867188 204.617188 L 164.660156 197.027344 Z M 160.351562 214.683594 L 154.074219 211.078125 L 154.074219 218.292969 Z M 161.007812 214.6875 L 153.746094 218.859375 L 153.746094 210.515625 Z M 207.730469 218.574219 L 194.6875 211.078125 L 194.6875 226.074219 Z M 170.15625 227.722656 L 183.363281 220.128906 L 180.984375 218.761719 L 167.777344 226.355469 Z M 178.277344 232.390625 L 191.488281 224.800781 L 189.109375 223.429688 L 175.898438 231.023438 Z M 191.816406 224.988281 L 178.605469 232.578125 L 180.984375 233.945312 L 194.195312 226.355469 Z M 172.863281 229.28125 L 186.074219 221.6875 L 183.691406 220.320312 L 170.484375 227.910156 Z M 186.402344 221.875 L 173.191406 229.46875 L 175.570312 230.835938 L 188.78125 223.242188 Z M 207.894531 156.617188 L 194.6875 164.210938 L 194.6875 179.582031 L 207.894531 187.171875 C 207.894531 176.988281 207.894531 166.804688 207.894531 156.617188 Z M 194.847656 210.796875 L 208.386719 218.574219 C 199.253906 223.828125 190.121094 229.078125 180.984375 234.324219 C 176.363281 231.667969 171.742188 229.011719 167.121094 226.355469 C 171.742188 223.699219 176.367188 221.046875 180.984375 218.386719 L 194.359375 226.074219 C 194.359375 221.011719 194.363281 215.953125 194.359375 210.890625 C 189.898438 208.332031 185.441406 205.769531 180.984375 203.203125 L 167.449219 210.984375 C 162.878906 208.367188 158.3125 205.734375 153.746094 203.109375 L 153.746094 187.550781 L 140.046875 179.675781 L 153.746094 171.804688 L 153.746094 156.242188 C 158.3125 153.617188 162.878906 150.984375 167.449219 148.371094 L 180.984375 156.148438 L 194.523438 148.371094 C 203.664062 153.605469 212.789062 158.867188 221.921875 164.117188 L 208.386719 171.898438 L 221.597656 179.488281 L 235.296875 171.613281 C 235.296875 176.988281 235.300781 182.363281 235.296875 187.738281 C 230.785156 185.144531 226.273438 182.550781 221.761719 179.957031 L 221.761719 195.519531 C 217.25 192.925781 212.734375 190.335938 208.222656 187.738281 L 208.222656 203.109375 C 203.765625 205.671875 199.308594 208.238281 194.847656 210.796875 Z M 167.121094 179.675781 L 153.910156 172.085938 L 140.703125 179.675781 L 153.910156 187.269531 C 158.316406 184.738281 162.71875 182.207031 167.121094 179.675781 Z M 234.96875 172.179688 L 221.921875 179.675781 L 234.96875 187.175781 L 234.96875 172.179688 " fill-opacity="1" fill-rule="nonzero"/></g></svg>